Coordinates
version=1
nRows=14
nColumns=24
inDegrees=yes

Units are S.I. units (second, meters, Newtons, ...)
Angles are in degrees.

endheader
time	pelvis_tilt	pelvis_list	pelvis_rotation	pelvis_tx	pelvis_ty	pelvis_tz	hip_flexion_r	hip_adduction_r	hip_rotation_r	knee_angle_r	ankle_angle_r	subtalar_angle_r	mtp_angle_r	hip_flexion_l	hip_adduction_l	hip_rotation_l	knee_angle_l	ankle_angle_l	subtalar_angle_l	mtp_angle_l	lumbar_extension	lumbar_bending	lumbar_rotation
      4.43000000	     -1.30590400	     -1.83354510	     -6.41421020	     -0.83244588	      0.90519019	      0.28485748	    -12.19617426	      7.21000946	     10.16192588	    -21.44312575	     24.81851080	     -8.21517821	      0.00000000	     31.37821336	     -2.28372007	     -7.95714922	    -10.88856650	     14.10543542	     -7.76408829	      0.00000000	    -10.91747054	     -1.78089621	     -4.25410609
      4.43500000	     -1.33588488	     -1.67989481	     -6.38581850	     -0.82403115	      0.90410777	      0.28458593	    -12.38284629	      6.90265687	      9.67254369	    -22.01700875	     24.64296720	     -7.40627215	      0.00000000	     31.60205216	     -2.08571079	     -8.06737600	    -11.93338924	     13.90270959	     -8.13551217	      0.00000000	    -10.78224270	     -2.02028972	     -4.16877353
      4.44000000	     -1.37507472	     -1.48931908	     -6.36792852	     -0.81556822	      0.90309068	      0.28432748	    -12.51100973	      6.54860209	      9.12342566	    -22.66265637	     24.40567471	     -6.57014801	      0.00000000	     31.81533625	     -1.85554575	     -8.13154163	    -12.99642624	     13.59563179	     -8.52048081	      0.00000000	    -10.62663787	     -2.30343448	     -4.08760075
      4.44500000	     -1.42973846	     -1.24939647	     -6.34091036	     -0.80706962	      0.90213515	      0.28405690	    -12.56969900	      6.14003217	      8.51515999	    -23.38549278	     24.11121908	     -5.70389421	      0.00000000	     32.03182660	     -1.57285031	     -8.15386593	    -14.06497742	     13.17719145	     -8.89168279	      0.00000000	    -10.44302287	     -2.64817660	     -4.02213721
      4.45000000	     -1.49913770	     -0.96237322	     -6.29518669	     -0.79856442	      0.90125638	      0.28375311	    -12.54981440	      5.68447935	      7.86722951	    -24.20378191	     23.73059361	     -4.82867393	      0.00000000	     32.25339582	     -1.23487204	     -8.14473681	    -15.12143552	     12.65600715	     -9.22922987	      0.00000000	    -10.23894917	     -3.04173099	     -3.97180424
      4.45500000	     -1.58680387	     -0.62544360	     -6.24842711	     -0.79008418	      0.90044765	      0.28345497	    -12.43777482	      5.17069262	      7.15490980	    -25.12582567	     23.29597123	     -3.92598336	      0.00000000	     32.49412617	     -0.84891369	     -8.09046468	    -16.17741578	     12.05572026	     -9.54721308	      0.00000000	    -10.01179502	     -3.49879854	     -3.95027499
      4.46000000	     -1.69814442	     -0.23224396	     -6.17878163	     -0.78161061	      0.89973791	      0.28312810	    -12.23526853	      4.59955639	      6.40899641	    -26.13924528	     22.75910514	     -3.02370282	      0.00000000	     32.75844001	     -0.40042930	     -8.01066613	    -17.21868399	     11.37936894	     -9.80465222	      0.00000000	     -9.75426751	     -4.01844373	     -3.94485829
      4.46500000	     -1.83045465	      0.20977627	     -6.09107290	     -0.77316132	      0.89912365	      0.28278289	    -11.93955371	      3.97697500	      5.63799537	    -27.25374997	     22.11904530	     -2.13426513	      0.00000000	     33.04889578	      0.10158342	     -7.90778200	    -18.25442379	     10.66827247	    -10.00880050	      0.00000000	     -9.47108013	     -4.59514864	     -3.95644997
      4.47000000	     -1.98128297	      0.69807299	     -5.98751900	     -0.76471666	      0.89860395	      0.28242541	    -11.55862353	      3.30538976	      4.86206326	    -28.46073690	     21.36230277	     -1.27471701	      0.00000000	     33.36429429	      0.65416092	     -7.78610551	    -19.29513782	      9.95957675	    -10.16126769	      0.00000000	     -9.16441557	     -5.22631080	     -3.98892899
      4.47500000	     -2.14243425	      1.20000531	     -5.88150887	     -0.75633350	      0.89816512	      0.28204422	    -11.08828974	      2.60925315	      4.08582066	    -29.78120824	     20.49549265	     -0.42315118	      0.00000000	     33.69971942	      1.22821314	     -7.61384003	    -20.35048603	      9.26131670	    -10.33097092	      0.00000000	     -8.85573650	     -5.86819748	     -4.00940836
      4.48000000	     -2.31367136	      1.71185648	     -5.76119099	     -0.74795303	      0.89780423	      0.28162764	    -10.54734009	      1.89842466	      3.33650712	    -31.18691734	     19.49050231	      0.38369463	      0.00000000	     34.04713360	      1.82493934	     -7.41871970	    -21.41231242	      8.59422881	    -10.50573747	      0.00000000	     -8.53698841	     -6.52197606	     -4.01625297
      4.48500000	     -2.46566116	      2.25742472	     -5.64301087	     -0.73949471	      0.89751572	      0.28129014	     -9.97649143	      1.16110553	      2.66683718	    -32.66648772	     18.34224818	      1.04013301	      0.00000000	     34.36250098	      2.44636211	     -7.26006596	    -22.47480531	      8.06739744	    -10.60243182	      0.00000000	     -8.22540598	     -7.22899924	     -4.08246243
      4.49000000	     -2.62311369	      2.77510332	     -5.54285159	     -0.73108876	      0.89727216	      0.28089484	     -9.32795611	      0.42738252	      2.01958331	    -34.23914331	     17.08198189	      1.69889250	      0.00000000	     34.67461846	      3.05135522	     -7.05066262	    -23.52820268	      7.56150946	    -10.80620092	      0.00000000	     -7.91458149	     -7.88803390	     -4.09067440
      4.49500000	     -2.75998420	      3.27129326	     -5.43545231	     -0.72266705	      0.89710027	      0.28050339	     -8.65335355	     -0.28068562	      1.44743549	    -35.87142288	     15.67049142	      2.25123041	      0.00000000	     34.93466496	      3.64533894	     -6.85194653	    -24.53786787	      7.14785302	    -11.02390470	      0.00000000	     -7.63165952	     -8.52440284	     -4.08420702
